<?xml version="1.0" encoding="UTF-8"?><svg id="Ebene_1" xmlns="http://www.w3.org/2000/svg" viewBox="0 0 100 100"><defs><style>.cls-1{fill:none;stroke:#000;stroke-miterlimit:10;stroke-width:5px;}</style></defs><polyline class="cls-1" points="87 10 87 37.44 59.56 37.44"/><path class="cls-1" d="M84.09,64.4c-1.87,4.43-4.58,8.41-7.93,11.76s-7.33,6.06-11.76,7.93-9.29,2.91-14.4,2.91h0c-5.11,0-9.98-1.04-14.4-2.91s-8.41-4.58-11.76-7.93-6.06-7.33-7.93-11.76-2.91-9.29-2.91-14.4h0c0-5.11,1.04-9.98,2.91-14.4s4.58-8.41,7.93-11.76,7.33-6.06,11.76-7.93,9.29-2.91,14.4-2.91h0c5.11,0,9.98,1.04,14.4,2.91s8.41,4.58,11.76,7.93,6.06,7.33,7.93,11.76"/></svg>
